<?xml version="1.0" standalone="no"?>
<!DOCTYPE svg PUBLIC "-//W3C//DTD SVG 1.1//EN" "http://www.w3.org/Graphics/SVG/1.1/DTD/svg11.dtd" >
<svg xmlns="http://www.w3.org/2000/svg">
<metadata></metadata>
<defs>
<font id="borgnormal" horiz-adv-x="974" >
<font-face units-per-em="2048" ascent="1638" descent="-410" />
<missing-glyph horiz-adv-x="1024" />
<glyph horiz-adv-x="2048" />
<glyph horiz-adv-x="2048" />
<glyph unicode="&#xd;" horiz-adv-x="1024" />
<glyph unicode=" "  horiz-adv-x="1024" />
<glyph unicode="&#x09;" horiz-adv-x="1024" />
<glyph unicode="&#xa0;" horiz-adv-x="1024" />
<glyph unicode="&#x22;" horiz-adv-x="1638" d="M16 795q0 328 231.5 557t563.5 229q330 0 559 -231.5t229 -563.5q0 -328 -240.5 -558t-572.5 -230q-326 0 -548 232.5t-222 564.5zM66 795q0 -311 207.5 -529.5t512.5 -218.5q311 0 538.5 217t227.5 522q0 307 -217 526.5t-524 219.5t-526 -215t-219 -522zM442 786 q0 150 108.5 256.5t258.5 106.5t254 -106.5t104 -256.5t-106.5 -254t-255.5 -104q-150 0 -256.5 104.5t-106.5 253.5z" />
<glyph unicode="$" horiz-adv-x="921" d="M16 37v1565q0 25 25 24h844q27 0 26 -24v-1561q0 -27 -26 -27l-844 -4q-25 0 -25 27zM68 61l792 5v1509h-792v-1514zM123 647q0 252 18 340q27 129 135 301q-29 -102 -57 -203q-12 -55 -12 -120q14 -162 57 -224q35 -48 121 -71q-43 -66 -63.5 -126.5t-27.5 -123 t-7 -101.5q0 -88 43 -198q-109 141 -154 246q-53 127 -53 280zM326 1370l28 37q68 -74 108 -149.5t58 -174.5q10 -49 12.5 -83.5t2.5 -86.5q0 -29 -2.5 -93t-2.5 -103l-79 4q16 68 23 114t7 99q0 55 -12 127q-20 104 -49 165.5t-94 143.5zM344 346q0 102 31 162 q39 74 117 74q70 0 106 -62q47 -78 47 -248q0 -88 -24 -161q4 27 5 43t1 36q0 25 -6 48q-31 88 -61 115.5t-68 21.5q-43 -8 -62 -56q-4 -12 -20 -96q-4 -35 -7.5 -57.5t-3.5 -42.5q2 -18 2 -29q-20 37 -31.5 80t-18.5 87t-7 85zM383 1452l20 25q88 -59 148 -172 q45 -88 86 -234.5t41 -257.5q0 -90 -25 -207l-96 82q16 72 23.5 122t7.5 101q0 61 -17 150q-23 125 -62.5 209t-125.5 182zM432 1509l29 37q190 -180 272 -372.5t82 -456.5q0 -174 -33.5 -310.5t-113.5 -238.5q4 25 13 81t9 93q0 45 -10 86q-2 10 -16 53q25 96 34 144 q29 125 29 219q0 76 -14 153q-33 170 -94.5 282t-186.5 230zM438 205q0 49 16.5 81.5t55.5 32.5q37 0 56.5 -36.5t19.5 -85.5q-2 -17 -2 -25q-10 -63 -27.5 -87t-46.5 -24q-35 0 -52.5 35t-17.5 80q-2 18 -2 29z" />
<glyph unicode="'" horiz-adv-x="1638" d="M-8 795q0 338 238.5 574.5t580.5 236.5q340 0 577.5 -240t237.5 -580q0 -336 -249 -574.5t-591 -238.5q-336 0 -565 240t-229 582zM41 795q0 -322 215 -547t530 -225q319 0 554 224t235 539q0 317 -223.5 542.5t-540.5 225.5q-319 0 -544.5 -221t-225.5 -538zM215 786 q0 242 176 416t422 174q244 0 414 -172t170 -418q0 -242 -174 -413.5t-418 -171.5t-417 171t-173 414zM266 786q0 -221 158 -378.5t381 -157.5q221 0 381 157.5t160 378.5t-157 380t-376 159q-225 0 -386 -158.5t-161 -380.5z" />
<glyph unicode="," horiz-adv-x="1599" d="M16 795q0 328 231.5 557t563.5 229q330 0 559 -231.5t229 -563.5q0 -328 -240.5 -558t-572.5 -230q-326 0 -548 232.5t-222 564.5zM66 795q0 -311 207.5 -529.5t512.5 -218.5q311 0 538.5 217t227.5 522q0 307 -217 526.5t-524 219.5t-526 -215t-219 -522zM213 793 q0 248 173 418.5t423 170.5t421 -173t171 -423q0 -244 -180.5 -417.5t-429.5 -173.5q-244 0 -411 175t-167 423zM250 793q0 -236 154.5 -399t386.5 -163q233 0 404 163t171 392q0 231 -162 395.5t-395 164.5t-396 -161t-163 -392zM442 786q0 150 108.5 256.5t258.5 106.5 t254 -106.5t104 -256.5t-106.5 -254t-255.5 -104q-150 0 -256.5 104.5t-106.5 253.5zM532 786q0 113 82 193t193 80t190.5 -80t79.5 -193t-79.5 -190.5t-192.5 -77.5t-193 78t-80 190z" />
<glyph unicode="-" horiz-adv-x="1497" d="M-43 801q0 51 51 51h1516q53 0 53 -51t-53 -51h-1516q-27 0 -39 14t-12 37z" />
<glyph unicode="." horiz-adv-x="778" d="M182 803q0 82 58.5 140t140.5 58q86 0 147.5 -57t61.5 -141t-60.5 -140.5t-148.5 -56.5q-84 0 -141.5 57.5t-57.5 139.5z" />
<glyph unicode="/" horiz-adv-x="1638" d="M16 795q0 328 231.5 557t563.5 229q330 0 559 -231.5t229 -563.5q0 -328 -240.5 -558t-572.5 -230q-326 0 -548 232.5t-222 564.5zM383 791q0 -174 119 -297t291 -123q176 0 303 122.5t127 292.5q0 174 -121 297t-295 123t-299 -120.5t-125 -294.5zM442 786 q0 150 108.5 256.5t258.5 106.5t254 -106.5t104 -256.5t-106.5 -254t-255.5 -104q-150 0 -256.5 104.5t-106.5 253.5z" />
<glyph unicode="0" horiz-adv-x="962" d="M68 848q0 166 114.5 280.5t280.5 114.5v-563h194v82h-100v254l285 2q18 -39 29.5 -83t11.5 -87q0 -168 -124 -281.5t-296 -113.5q-162 0 -278.5 116.5t-116.5 278.5zM326 766h71v219h-71v-219z" />
<glyph unicode="1" horiz-adv-x="978" d="M86 852h147v246h-65q117 150 313 149q172 0 296 -113.5t124 -281.5h-221v-352q-43 -23 -94 -33t-105 -10q-166 0 -280.5 114.5t-114.5 280.5zM717 520v301h182q0 -94 -49 -171t-133 -130zM739 565q43 37 80 92q23 39 36.5 71t21.5 71h-138v-234z" />
<glyph unicode="2" horiz-adv-x="983" d="M80 805h311v74h-311q8 102 70.5 191t156.5 132v-86h60v107q25 6 54.5 12t53.5 6q135 0 242 -65q-23 10 -60 10q-90 0 -135 -70q-25 -41 -24 -86q0 -80 69 -127q41 -25 86 -24q80 0 127 69q23 35 23 84q0 57 -31 98q57 -55 90 -127.5t33 -156.5q0 -74 -28.5 -144.5 t-78.5 -123.5h-94v94h-80v-94h-94v202h-221v-284q-90 45 -149.5 127t-69.5 182zM334 608v142h76v-142h-76z" />
<glyph unicode="3" horiz-adv-x="958" d="M66 825h356v-379q-133 0 -242 111q-115 117 -114 268zM68 864q0 104 56 190.5t150 135.5q102 -55 152 -82q151 -84 149 -88q-92 -47 -102 -156h-405zM96 801q12 -104 103 -207q81 -90 202 -121v328h-305zM322 1208q33 16 65.5 22.5t75.5 6.5q168 0 293 -106.5t125 -264.5 q-8 74 -66.5 127.5t-136.5 53.5q-47 0 -68 -7q-4 -2 -149 82q-70 43 -139 86zM453 449v376h22q0 -74 59.5 -129t139.5 -55t139.5 51t69.5 129q0 -156 -123 -264t-307 -108z" />
<glyph unicode="4" horiz-adv-x="954" d="M63 850q0 127 76 228.5t205 148.5v-377h-281zM66 793h278v-318q-113 37 -187.5 121t-90.5 197zM100 883h217v299q-55 -25 -87.5 -52.5t-65.5 -78.5q-53 -78 -64 -168zM385 997v242q16 6 51 6h23q139 0 246 -71v-177h-320zM406 461v473h354v194q55 -53 87 -124.5 t32 -153.5q0 -125 -80 -232h-340v-163z" />
<glyph unicode="5" horiz-adv-x="1003" d="M88 827q0 166 114.5 281t280.5 115q102 0 189.5 -39t146.5 -115h-139v-68h-330v-59h393v66h115q20 -41 31.5 -75t11.5 -75h-106v-61h106q0 -20 -5 -44t-15 -53h-508l110 -151l193 98h182q-53 -98 -153.5 -156.5t-221.5 -58.5q-164 0 -279.5 116t-115.5 279z" />
<glyph unicode="6" horiz-adv-x="913" d="M39 842q0 119 63.5 216t167.5 144v-260h88v285q33 10 76 10q55 0 109 -12v-283h65v262q109 -45 177.5 -143t68.5 -219q0 -45 -6 -64q-12 -25 -19 -41h-286v-276q-33 -10 -45.5 -13.5t-34.5 -3.5q-18 0 -29 2l-76 11v280h-88v-248q-111 47 -171 138.5t-60 214.5z" />
<glyph unicode="7" horiz-adv-x="954" d="M59 831q0 162 110 278t267 116v-394h-377zM61 782h252l-77 -151l219 -94v-101q-152 0 -263.5 99.5t-130.5 246.5zM477 1092v137q160 0 278.5 -117t118.5 -281q0 -39 -8 -75.5t-22 -75.5h-299l96 412h-164zM492 494q0 29 4 41l32 94h185v-107q-49 -49 -78 -61 q-47 -23 -139 -23q-2 10 -3 23.5t-1 32.5z" />
<glyph unicode="8" horiz-adv-x="958" d="M68 840q0 166 114.5 280.5t280.5 114.5q158 0 268 -88q-119 0 -196.5 -78t-77.5 -201q47 29 75 43q90 43 148 39q61 0 113 -30q41 -25 90 -80q0 -25 -3 -41.5t-8 -34.5h-415v-51h399q-12 -35 -25.5 -60.5t-35.5 -52.5h-265v-55h-180v-43h180v-51l-67 -7 q-164 0 -279.5 116t-115.5 280z" />
<glyph unicode="9" horiz-adv-x="933" d="M51 852q0 156 107.5 269.5t265.5 127.5v-198h-113v-93h113v-182h-113v-71h113v-99h-283q-90 109 -90 246zM469 459v266h373q-43 -115 -144.5 -190.5t-228.5 -75.5zM469 776v182h264v-182h-264zM469 1018v231q117 0 214 -63.5t146 -167.5h-360zM512 819h184v99h-184v-99z M780 776v182h72q14 -43 14 -106l-8 -76h-78z" />
<glyph unicode=":" horiz-adv-x="1617" d="M16 795q0 328 231.5 557t563.5 229q330 0 559 -231.5t229 -563.5q0 -328 -240.5 -558t-572.5 -230q-326 0 -548 232.5t-222 564.5zM66 795q0 -311 207.5 -529.5t512.5 -218.5q311 0 538.5 217t227.5 522q0 307 -217 526.5t-524 219.5t-526 -215t-219 -522zM213 793 q0 248 173 418.5t423 170.5t421 -173t171 -423q0 -244 -180.5 -417.5t-429.5 -173.5q-244 0 -411 175t-167 423zM250 793q0 -236 154.5 -399t386.5 -163q233 0 404 163t171 392q0 231 -162 395.5t-395 164.5t-396 -161t-163 -392zM344 795q0 190 136 324t331 134 q190 0 324.5 -136t134.5 -331q0 -190 -136.5 -324t-330.5 -134q-190 0 -324.5 136t-134.5 331zM442 786q0 -150 106.5 -254t256.5 -104t256 104t106 254t-104.5 256.5t-253.5 106.5q-150 0 -258.5 -106.5t-108.5 -256.5zM555 791q0 102 72.5 174.5t179.5 72.5q102 0 176 -74 t74 -178q0 -102 -77 -174.5t-181 -72.5t-174 73.5t-70 178.5zM616 791q0 -80 53.5 -135.5t131.5 -55.5t135 55t57 131q0 80 -54 134.5t-132 54.5q-80 0 -135.5 -53.5t-55.5 -130.5zM682 786q0 51 37 88t88 37t85 -36t34 -89q0 -49 -35 -83.5t-86 -34.5q-49 0 -86 34.5 t-37 83.5zM760 786q0 -45 45 -45q47 0 47 45q0 20 -13.5 34t-33.5 14q-18 0 -31.5 -13.5t-13.5 -34.5z" />
<glyph unicode=";" horiz-adv-x="1638" d="M16 795q0 328 231.5 557t563.5 229q330 0 559 -231.5t229 -563.5q0 -328 -240.5 -558t-572.5 -230q-326 0 -548 232.5t-222 564.5zM66 795q0 -311 207.5 -529.5t512.5 -218.5q311 0 538.5 217t227.5 522q0 307 -217 526.5t-524 219.5t-526 -215t-219 -522zM229 795 q0 238 170 407.5t408 169.5t407.5 -169.5t169.5 -407.5t-170 -408t-407 -170q-240 0 -409 169t-169 409zM418 786q0 -160 109.5 -273.5t267.5 -113.5q160 0 279.5 113.5t119.5 273.5q0 158 -112.5 273t-272.5 115t-275.5 -114t-115.5 -274zM469 786q0 139 100.5 237.5 t239.5 98.5q137 0 235.5 -98.5t98.5 -237.5q0 -137 -103.5 -236t-244.5 -99q-137 0 -231.5 98t-94.5 237z" />
<glyph unicode="&#x3c;" horiz-adv-x="999" d="M-649 696q0 14 14 23q143 111 212 150.5t147 39.5q94 0 149 -116q127 -272 205 -285q12 -2 35 -2q80 0 268 262q90 125 194 125q125 0 227.5 -217t213.5 -217q113 0 206 173t173 173q16 0 26 -2q82 -14 146 -88q119 -138 121 -140q8 -8 8 -18q0 -25 -25 -25q-6 0 -16 7 q-18 16 -111 129q-59 74 -131 86q-8 2 -24 2q-82 0 -166 -173t-181 -173q-123 -12 -235.5 211t-235.5 223q-106 0 -194 -121q-195 -266 -273 -266q-23 0 -34 2q-78 12 -201 282q-55 119 -150 119q-94 0 -204 -94q-78 -68 -125 -92q-14 -8 -26.5 0t-12.5 22zM-647 745 q0 20 22 25q168 16 336 33q53 4 145.5 15t143.5 11q29 0 60.5 -2t63.5 -7t206 -85q68 -31 131 -30q76 0 260 88q90 43 166 43q102 0 225 -95q137 -106 227 -118q43 -6 78 -7q35 0 128 11.5t132 11.5q27 0 27 -27q0 -22 -23 -22q-55 0 -170 -15q-66 -8 -96 -8q-37 0 -84 6 q-90 14 -219 113.5t-229 99.5q-76 0 -260 -88q-90 -43 -166 -43q-68 0 -131 29q-182 82 -221 87t-82 5q-41 0 -183 -14q-80 -8 -125 -8q-66 0 -166 -16.5t-163 -16.5q-33 0 -33 24zM-639 860q0 14 10.5 22.5t24.5 0.5q121 -78 178 -108t117 -30q74 0 250 111q86 53 159 53 q86 -8 252 -250q76 -111 172 -110q113 0 225.5 194.5t204.5 194.5q29 0 43 -4q80 -20 121 -127q90 -231 166 -250q29 -6 53 -6q74 0 168 67q129 92 172 111q14 8 25.5 -1t11.5 -23q0 -19 -16 -25q-41 -16 -185 -113q-102 -68 -180 -67q-31 0 -61 8q-90 20 -144.5 187 t-142.5 190q-10 4 -22.5 4h-18.5q-66 0 -239 -266q-80 -123 -181 -123q-113 0 -215 172q-109 180 -213 188q-74 0 -250 -110q-86 -53 -159 -54q-80 0 -160 49q-150 90 -158 94.5t-8 20.5zM-633 811q0 14 15 23q143 111 211.5 150.5t146.5 39.5q94 0 149 -117 q127 -272 205 -284q12 -2 35 -2q80 0 268 262q90 125 195 125q125 0 227.5 -217.5t212.5 -217.5q113 0 206 173.5t173 173.5q16 0 27 -2q82 -14 145 -89q119 -137 121 -139q8 -8 8 -18q0 -25 -24 -25q-6 0 -17 6q-18 16 -110 129q-59 74 -131 86q-8 2 -25 2q-82 0 -166 -173 t-180 -173q-123 -12 -235.5 211t-235.5 223q-106 0 -195 -120q-195 -266 -272 -267q-23 0 -35 2q-78 12 -201 283q-55 119 -149 119t-205 -94q-78 -68 -125 -93q-14 -8 -26.5 0.5t-12.5 22.5zM-625 909q0 27 27 27q6 0 16 -6q45 -37 107 -109q98 -113 188 -141 q25 -8 42.5 -10t43.5 -2q53 0 152.5 31.5t157.5 31.5q23 -2 32 -2q63 0 205 -74q70 -37 121 -37q29 0 43 5q88 18 157.5 181t166.5 171q119 12 186 -222.5t180 -252.5q33 -4 47 -4q100 0 211 102q164 152 209 178q14 8 26.5 0t12.5 -22q0 -15 -14 -23q-45 -27 -222 -180 q-119 -104 -225 -105q-35 0 -53 5q-111 18 -174.5 246.5t-179.5 228.5q-82 -8 -131 -107q-115 -231 -185 -246q-29 -6 -53 -6q-55 0 -197 70q-74 37 -110.5 41t-61.5 4q-63 0 -166.5 -32t-152.5 -32q-23 0 -42.5 2.5t-41.5 10.5q-98 33 -199 143q-74 82 -112 115 q-10 10 -11 20z" />
<glyph unicode="=" horiz-adv-x="106" d="M-49 801q0 51 26 51h758q16 0 21.5 -18.5t5.5 -32.5q0 -51 -27 -51h-758q-10 0 -18 15t-8 36z" />
<glyph unicode="&#x3e;" horiz-adv-x="980" d="M-725 825q0 18 51 35l25 8q80 27 180 111q190 160 264 160q47 0 94 -27q78 -43 88.5 -205t78 -214t145.5 -52q66 0 159 39q238 98 274 103t284 46q133 23 262 23q117 0 239 -23q227 -41 243.5 -43t16.5 -22q0 -31 -28 -27q-57 8 -181 31q-176 33 -290 33 q-129 0 -257 -21.5t-255 -42.5q-70 -10 -314 -102q-106 -41 -168 -41q-88 0 -157.5 54t-77.5 215t-86 204q-16 10 -35.5 16.5t-46.5 6.5q-66 0 -148 -70q-217 -184 -266 -201l-24 -8q-49 -16 -50 -27q0 -10 99 -10q35 0 136 2t157 2q119 0 163 -3t102 -14t263 -71 q147 -43 270 -43q150 0 332 25q254 35 332 41q68 -20 111 -29q129 -29 219 -29q78 0 123 22.5t45 76.5q0 76 -57.5 103.5t-162.5 27.5q-55 0 -143 -5.5t-96 -5.5q-111 0 -266.5 -94t-255.5 -94q-25 0 -37 2q-82 8 -160 53q-205 117 -246 127q-176 43 -307 43 q-61 0 -159.5 -10t-184.5 -36.5t-172 -53.5q-14 -4 -22.5 4t-8.5 21q0 18 31 26t164 49q96 29 190 40.5t174 11.5q133 0 308 -45q43 -10 239 -125q82 -47 158 -56q12 -2 37 -2q82 0 313 129q111 61 205 62h84t88 2q156 0 231 -29q105 -39 105 -145q0 -72 -67.5 -100.5 t-178.5 -28.5q-72 0 -164 12t-143 27q-16 -2 -330 -43q-172 -23 -332 -23q-123 0 -272 43q-209 59 -258 69.5t-420 53.5q-256 31 -256 61zM-641 797q0 16 18 22q66 20 279 125q156 76 272 76h31q25 -4 35 -4q100 -10 328 -215q106 -94 213 -105q12 -2 32 -2q100 0 363 205 q121 94 231 94q25 0 37 -2q129 -14 252 -100q231 -162 233 -164q14 -8 15 -22q0 -12 -12.5 -21.5t-26.5 -1.5q-70 39 -172 119q-164 127 -293 141q-12 2 -37 2q-121 0 -297 -149.5t-299 -149.5q-20 2 -31 2q-111 10 -213 103q-231 207 -327 217q-14 0 -31.5 2t-28.5 2 q-119 0 -264 -74q-215 -109 -272 -127q-14 -4 -24.5 4t-10.5 23zM-639 885q0 18 18 24q74 18 267 103q147 63 250 63q25 0 50 -2t52 -8q104 -20 303 -277q92 -119 205 -141q14 -4 34.5 -6t37.5 -2q84 0 360 172q131 82 248 82q115 0 237.5 -23t243.5 -43q20 -2 21 -22 q0 -31 -29 -27q-55 6 -234 41q-129 25 -235 25q-119 0 -250 -80q-287 -174 -375 -174h-35q-25 6 -36 8q-104 20 -304 276q-92 119 -204 142q-55 10 -92 10q-102 0 -244 -63q-186 -84 -258 -103q-14 -4 -22.5 4t-8.5 21z" />
<glyph unicode="?" horiz-adv-x="1638" d="M16 795q0 328 231.5 557t563.5 229q330 0 559 -231.5t229 -563.5q0 -328 -240.5 -558t-572.5 -230q-326 0 -548 232.5t-222 564.5zM66 795q0 -311 207.5 -529.5t512.5 -218.5q311 0 538.5 217t227.5 522q0 307 -217 526.5t-524 219.5t-526 -215t-219 -522zM135 795 q0 279 196.5 473t477.5 194t476.5 -197.5t195.5 -478.5q0 -279 -204 -474t-489 -195q-276 0 -464.5 198.5t-188.5 479.5zM176 795q0 -266 175 -451.5t437 -185.5q266 0 459 184t193 444q0 262 -184.5 448.5t-446.5 186.5t-447.5 -183t-185.5 -443zM213 793q0 248 173 418.5 t423 170.5t421 -173t171 -423q0 -244 -180.5 -417.5t-429.5 -173.5q-244 0 -411 175t-167 423zM250 793q0 -236 154.5 -399t386.5 -163q233 0 404 163t171 392q0 231 -162 395.5t-395 164.5t-396 -161t-163 -392zM442 786q0 150 108.5 256.5t258.5 106.5t254 -106.5 t104 -256.5t-106.5 -254t-255.5 -104q-150 0 -256.5 104.5t-106.5 253.5zM496 786q0 -127 91 -216t218 -89t217 88t90 217t-88 219.5t-215 90.5q-129 0 -221 -90.5t-92 -219.5zM532 786q0 113 82 193t193 80t190.5 -80t79.5 -193t-79.5 -190.5t-192.5 -77.5t-193 78t-80 190 zM713 795q0 -39 27.5 -67t66.5 -28t66.5 28t27.5 67t-27.5 66.5t-66.5 27.5t-66.5 -27.5t-27.5 -66.5z" />
<glyph unicode="A" horiz-adv-x="1024" d="M94 825v31q0 135 74 236.5t199 138.5v-406h-273zM111 745h256v-266q-199 74 -256 266zM197 696q10 -45 31.5 -72.5t95.5 -66.5v139h-127zM457 463v782l32 4q25 0 31 -2v-205h342q47 -84 47 -186q0 -133 -84 -239.5t-213 -143.5v252h-92v-262q-12 -2 -33 -2h-21t-9 2z M580 1169v72q162 -33 254 -156h-93q-37 35 -73 50q-39 20 -88 34z" />
<glyph unicode="B" horiz-adv-x="1056" d="M125 731h199v260h-187q49 115 133 183q97 79 229 79h3v-387h411q0 -66 -22 -129h-395v-53h370q-53 -102 -151.5 -164.5t-214.5 -62.5q-133 0 -237.5 71.5t-137.5 202.5zM549 1165v86q76 0 128 -18.5t107 -67.5q68 -57 96.5 -113.5t28.5 -140.5h-84q-8 66 -29.5 108 t-70.5 83q-74 63 -176 63zM575 1186q59 -12 70 -15q49 -14 96 -53t70 -80t31 -104h45q-10 119 -115 211q-53 47 -92 65.5t-105 18.5v-43z" />
<glyph unicode="C" horiz-adv-x="1024" d="M94 825v31q0 135 74 236.5t199 138.5v-406h-273zM111 745h256v-266q-199 74 -256 266zM152 877h167v270q-80 -47 -123.5 -114.5t-43.5 -155.5zM457 463v782l32 4q25 0 31 -2v-205h342q47 -84 47 -186q0 -133 -84 -239.5t-213 -143.5v252h-92v-262q-12 -2 -33 -2h-21t-9 2 zM580 1169v72q162 -33 254 -156h-93q-37 35 -73 50q-39 20 -88 34z" />
<glyph unicode="D" horiz-adv-x="937" d="M53 842q0 109 56.5 201t148.5 143q-4 -6 -6 -8q-16 -25 -16 -39q0 -82 53 -133q41 -41 125 -72v-272h-318q-43 86 -43 180zM111 840q0 -57 32 -123h213v180q-57 6 -105 50t-58 110q-63 -70 -78 -164q-2 -14 -3 -30.5t-1 -22.5zM391 981l17 43q20 -14 47 -14t47 14l12 -43 q-27 -18 -61 -18q-35 0 -62 18zM393 1229q37 10 66 10q38 0 71 -10l-10 -49q-31 8 -57 8q-25 0 -55 -8zM492 449v483q72 18 117.5 74.5t45.5 132.5q0 16 -16 49q-2 4 -10 16q106 -47 172.5 -145t66.5 -217q0 -47 -12 -90t-35 -90h-248v-68h199q-53 -63 -126 -104t-154 -41z " />
<glyph unicode="E" d="M96 780l316 135q4 -16 11 -27.5t19 -27.5l-268 -268q-66 78 -78 188zM96 856q12 121 86 211h271q-37 -41 -43 -94zM119 885l270 102q4 16 8 35q9 19 25 31h-232q-18 -27 -25 -39.5t-19.5 -41t-17.5 -44t-9 -43.5zM123 768q0 -35 12 -65.5t22.5 -46t22.5 -31.5l236 235 l-13 14l-6 19zM229 1120q53 43 122 71t138 28q162 0 282 -101.5t134 -259.5h-196q31 49 30 107q0 66 -52 110.5t-122 44.5h-336zM328 647l145 180l12 -6l-106 -203zM395 444l133 351q23 -6 25 -7q12 2 31 3h321q-14 -158 -134 -260.5t-282 -102.5q-18 0 -44.5 5t-49.5 11z " />
<glyph unicode="F" d="M96 780l316 135q4 -16 11 -27.5t19 -27.5l-268 -268q-66 78 -78 188zM96 856q12 121 86 211h271q-37 -41 -43 -94zM229 1120q53 43 122 71t138 28q162 0 282 -101.5t134 -259.5h-196q31 49 30 107q0 66 -52 110.5t-122 44.5h-336zM315 1147h250q82 0 145.5 -50t63.5 -128 q0 -49 -16 -82h112q-29 139 -127 221t-245 82q-55 0 -144 -29q-14 -4 -39 -14zM328 647l145 180l12 -6l-106 -203zM395 444l133 351q23 -6 25 -7q12 2 31 3h321q-14 -158 -134 -260.5t-282 -102.5q-18 0 -44.5 5t-49.5 11zM459 473q23 0 41 -1t30 -1q53 0 92.5 17.5 t96.5 58.5q114 80 155 213h-315z" />
<glyph unicode="G" horiz-adv-x="962" d="M66 788h79q10 -31 44 -60.5t77 -35.5q23 -6 39 -6q18 0 27 2l53 -174l217 -70q-33 -12 -73 -16t-68 -4q-162 0 -278.5 110.5t-116.5 253.5zM66 844q6 68 22 110l68 -26q-6 -12 -11.5 -41t-7.5 -43h-71zM94 872h25l4 21l6 18l-27 7l-6 -21zM113 1012q8 16 23.5 36.5 t29.5 36.5l47 -98q-25 -6 -39 -31zM205 1118q51 45 106.5 69.5t116.5 24.5v-278q-20 35 -44 51t-73 16h-30q-18 0 -29 -4zM236 1108l30 -86q16 4 41 4q20 0 44 -4.5t55 -22.5v191q-47 -10 -88.5 -30.5t-81.5 -51.5zM410 733l30 55h439q-10 -111 -74 -196.5t-166 -130.5 l-186 86zM467 717l33 -127l143 -58l102 86q53 59 82 127h-344zM496 844v370q152 0 269.5 -109t117.5 -261h-387z" />
<glyph unicode="H" horiz-adv-x="985" d="M78 801h33q0 -68 44 -119t111 -61v-64q-92 0 -140 64.5t-48 179.5zM229 801q0 25 16.5 43t41.5 18t43 -16t18 -41t-16.5 -43.5t-40.5 -18.5q-25 0 -43.5 16.5t-18.5 41.5zM252 801q4 -33 39 -37q41 8 37 39q0 16 -11.5 28.5t-27.5 8.5q-37 4 -37 -39zM281 979v164 q94 53 192 53q203 0 324 -137h-262v-131h337q21 -53 21 -127q0 -123 -70 -221v213h-250v-365q-39 -22 -95 -22h-5q-78 0 -154 32v189q63 10 106.5 59t43.5 115q0 76 -53.5 127t-134.5 51zM598 1024h152l102 -66h-154zM666 1008l49 -31h80l-54 31h-75zM698 676l47 90l48 -88 l-48 -100zM723 678l20 -43l25 43l-23 49z" />
<glyph unicode="I" horiz-adv-x="1024" d="M94 825v31q0 135 74 236.5t199 138.5v-406h-273zM111 745h256v-266q-199 74 -256 266zM457 463v782l32 4q25 0 31 -2v-205h342q47 -84 47 -186q0 -133 -84 -239.5t-213 -143.5v252h-92v-262q-12 -2 -33 -2h-21t-9 2zM483 498h17v254h139v-238q115 39 175 128t60 214 q0 43 -8 72.5t-28 70.5h-340v213h-15v-714zM580 1169v72q162 -33 254 -156h-93q-37 35 -73 50q-39 20 -88 34z" />
<glyph unicode="J" horiz-adv-x="937" d="M53 842q0 109 56.5 201t148.5 143q-4 -6 -6 -8q-16 -25 -16 -39q0 -82 53 -133q41 -41 125 -72v-272h-318q-43 86 -43 180zM391 981l17 43q20 -14 47 -14t47 14l12 -43q-27 -18 -61 -18q-35 0 -62 18zM393 1229q37 10 66 10q38 0 71 -10l-10 -49q-31 8 -57 8 q-25 0 -55 -8zM492 449v483q72 18 117.5 74.5t45.5 132.5q0 16 -16 49q-2 4 -10 16q106 -47 172.5 -145t66.5 -217q0 -47 -12 -90t-35 -90h-248v-68h199q-53 -63 -126 -104t-154 -41zM526 498q37 6 49.5 9t46 16.5t64.5 35.5h-137v137h250q37 72 37 146q0 88 -41 164 q-31 57 -103 124q-10 -66 -16 -86q-12 -37 -43 -71q-43 -49 -107 -68v-407z" />
<glyph unicode="K" horiz-adv-x="933" d="M66 840q0 176 112.5 282.5t282.5 106.5l-2 -268q-45 0 -78 -34t-33 -79l-280 -53q-2 16 -2 45zM82 725l301 98l-2 21q0 35 26.5 61.5t63.5 26.5t62.5 -27.5t25.5 -64.5t-26.5 -61.5t-65.5 -24.5l39 -312q-37 -6 -66 -6q-49 0 -110 25l112 297q-31 8 -49 41l-266 -176 q-29 43 -45 102zM160 578l205 170l30 -27l-121 -236q-76 35 -114 93zM201 567l26 -22l35 -21l103 189zM508 725h14q37 8 62 53q18 35 18 66q0 14 -2 22t-6 13l272 57q18 -84 19 -150q0 -143 -82 -227q-74 -76 -225 -108zM555 702l53 -202q205 34 240 237q4 18 4 49 q0 18 -2 33t-12 64l-201 -39q-4 -29 -5 -45.5t-11 -34.5q-23 -41 -66 -62z" />
<glyph unicode="L" d="M74 825q0 166 114.5 281t280.5 115h27v-789l-27 -2q-162 0 -278.5 117t-116.5 278zM340 690h80v223h-80v-223zM555 446v220l336 153q0 -131 -96.5 -236.5t-239.5 -136.5zM555 705v75l309 164q4 -6 10.5 -25.5t10.5 -56.5zM555 825v64l266 151q19 -22 29 -51zM555 936v72 l193 116l47 -47zM555 1030v187q96 -19 178 -80zM580 862l239 135l-6 13l-233 -133v-15zM586 745l272 132l-6 26l-266 -137v-21z" />
<glyph unicode="M" horiz-adv-x="950" d="M61 786h388v-370q-152 0 -270 109.5t-118 260.5zM66 842q10 111 73.5 196.5t165.5 130.5l187 -86l43 -186l-31 -55h-438zM342 1186q33 12 73 16t68 4q162 0 279 -110.5t117 -253.5h-80q-10 31 -41 57q-37 33 -80 39q-23 6 -39 6q-18 0 -27 -2l-53 174zM449 1184l147 -47 l49 -160q4 0 40 -4t58 -17q55 -29 78 -86h25q-25 147 -150 240q-57 41 -118.5 57.5t-128.5 16.5zM516 418v278q20 -35 44 -51t73 -16q20 -2 31 -2q16 0 28 6l47 -121q-51 -45 -106 -69.5t-117 -24.5zM551 463l76 20q40 16 73 39l-22 78q-25 -6 -45 -6t-45 6l-37 14v-151z M731 643q25 6 39 31l61 -56q-8 -16 -22 -36.5t-31 -36.5zM788 702q6 12 11.5 41t7.5 43h72q-6 -68 -23 -110zM825 723l19 -6l8 45h-18z" />
<glyph unicode="N" horiz-adv-x="950" d="M72 840q0 115 56 208t155 142v-219h71v248q18 8 52 12t61 4q12 2 35 2q29 0 65 -10v-256h82v231q106 -45 172 -143t66 -219q0 -29 -2 -46.5t-13 -29.5h-303v115h-286v-385q-96 53 -153.5 144t-57.5 202zM324 479v103h194v-129q-14 -2 -36.5 -2h-30.5q-43 6 -93 18 q-14 2 -34 10zM324 653v178h200v-178h-200zM360 512l123 -25v54h-123v-29zM360 692h132v99h-132v-99z" />
<glyph unicode="O" horiz-adv-x="925" d="M53 825q0 123 76 226.5t193 150.5l47 -127h-181v-53h185l41 -141h-226v-56h680q0 -111 -54 -198.5t-148 -141.5v215h-426v-206q-86 53 -136.5 140t-50.5 191zM338 528v121h237v-121h-237zM367 1214q14 4 39.5 4.5t42.5 2.5q27 0 54 -2.5t54 -8.5l-111 -112zM373 565h168 v45h-168v-45zM426 1192l25 -45l41 45h-66zM473 881v176l129 141q106 -37 177 -121.5t87 -195.5h-393z" />
<glyph unicode="P" horiz-adv-x="954" d="M70 831q0 53 8 87h217v137h-158q53 80 133 123h140v-291h471l4 -56h-70l-197 -253h89l129 170h38q-29 -127 -127 -211t-231 -97v174h-51v-178q-123 0 -223.5 71t-145.5 181h342v74h-362zM465 948v279q139 0 248.5 -77t150.5 -202h-399zM502 985h309q-27 47 -55.5 78 t-73.5 61q-86 57 -180 68v-207z" />
<glyph unicode="Q" horiz-adv-x="954" d="M106 1020q47 100 144.5 164.5t214.5 64.5q63 0 117.5 -12t105.5 -43q-37 -25 -55 -41q-59 -51 -82 -91t-29 -91t-12 -99h-141q-82 92 -207 134q-20 6 -56 14zM209 1053q4 -2 65 -23q39 -12 62 -31q45 -35 74 -81h53q2 10 4 57t12 74q33 86 111 135q-20 2 -39 5t-41 3 q-59 0 -145 -33q-49 -18 -84 -41.5t-72 -64.5zM399 834h486q0 -45 -15.5 -88.5t-42.5 -83.5h-286v-35h43v-146q-41 -12 -63.5 -17t-55.5 -5q2 16 4 47t2 47q0 76 -14.5 146.5t-57.5 134.5zM571 872l281 140q33 -70 33 -140h-314zM616 1001l117 162q63 -51 98 -110zM625 496 v131h176q-31 -41 -78 -76t-98 -55z" />
<glyph unicode="R" horiz-adv-x="954" d="M106 1020q47 100 144.5 164.5t214.5 64.5q63 0 117.5 -12t105.5 -43q-37 -25 -55 -41q-59 -51 -82 -91t-29 -91t-12 -99h-141q-82 92 -207 134q-20 6 -56 14zM399 834h486q0 -45 -15.5 -88.5t-42.5 -83.5h-286v-35h43v-146q-41 -12 -62.5 -17t-56.5 -5q2 16 4 47t2 47 q0 76 -14.5 146.5t-57.5 134.5zM571 872l281 140q33 -70 33 -140h-314zM616 1001l117 162q63 -51 98 -110zM625 496v131h176q-31 -41 -78 -76t-98 -55zM659 547l37 20q23 17 35 31h-72v-51zM672 893h174l-4 41l-6 39zM682 1038l106 29l-22 27l-29 24z" />
<glyph unicode="S" horiz-adv-x="987" d="M80 793v24q0 166 114.5 280.5t280.5 114.5q37 0 65.5 -2t57.5 -10v-301h289q2 -20 5 -37.5t3 -44.5q0 -29 -8 -68.5t-19 -70.5h-389q-14 78 -86 96q-16 4 -60 9t-81 10h-172zM86 745h166q-2 -8 -2 -26v-16.5t2 -12.5q0 -55 18.5 -92t65.5 -49q20 -4 29 -4q45 0 77 33 l166 -138q-61 -18 -133 -18q-147 0 -255.5 91t-133.5 232zM463 602l14 31h371q-33 -61 -84 -108.5t-119 -73.5zM532 600l130 -100q35 16 63.5 39.5t34.5 29.5q14 15 26 31h-254z" />
<glyph unicode="T" horiz-adv-x="987" d="M80 793v24q0 166 114.5 280.5t280.5 114.5q37 0 65.5 -2t57.5 -10v-301h289q2 -20 5 -37.5t3 -44.5q0 -29 -8 -68.5t-19 -70.5h-389q-14 78 -86 96q-16 4 -60 9t-81 10h-172zM86 745h166q-2 -8 -2 -26v-16.5t2 -12.5q0 -55 18.5 -92t65.5 -49q20 -4 29 -4q45 0 77 33 l166 -138q-61 -18 -133 -18q-147 0 -255.5 91t-133.5 232zM111 827h141q47 -2 97 -6t82 -21.5t48.5 -37t34.5 -55.5h332q8 31 11 42.5t3 34.5v82h-293v305q-20 6 -44.5 8.5t-51.5 2.5q-131 0 -240 -101q-121 -111 -120 -254zM463 602l14 31h371q-33 -61 -84 -108.5 t-119 -73.5z" />
<glyph unicode="U" d="M78 817q0 59 14 109h221v84h-184q51 90 143.5 146t200.5 56v-479q-86 -72 -127 -106q-125 -103 -133 -103q-37 0 -99 131q-36 76 -36 162zM260 487l236 189l176 -207q-90 -47 -199 -47q-55 0 -107.5 17.5t-105.5 47.5zM524 733v193h353q16 -50 16 -109q0 -100 -45 -181 t-125 -138zM586 758l147 -168q29 31 47.5 57.5t37 65.5t24.5 72.5t6 86.5h-262v-114z" />
<glyph unicode="V" horiz-adv-x="950" d="M92 1022q51 100 143.5 158.5t206.5 58.5q147 0 262 -86t148 -223h-238l-108 217l-119 -53l109 -205h-174q-49 80 -144 115q-31 10 -86 18zM102 645q18 -8 31 -12q76 -27 135 -27h516q-59 -74 -149 -115.5t-193 -41.5q-106 0 -196 54t-144 142zM160 602q84 -68 129 -90 q68 -35 149 -35q164 1 279 105q-90 -12 -199 -13q-80 0 -142.5 4.5t-109.5 8.5q-55 0 -92 12q-6 2 -14 8zM317 659q55 41 56 89q0 18 -7.5 40.5t-21.5 55.5h518q0 -45 -8 -79t-47 -106h-490z" />
<glyph unicode="W" horiz-adv-x="950" d="M92 1022q51 100 143.5 158.5t206.5 58.5q147 0 262 -86t148 -223h-238l-108 217l-119 -53l109 -205h-174q-49 80 -144 115q-31 10 -86 18zM102 645q18 -8 31 -12q76 -27 135 -27h516q-59 -74 -149 -115.5t-193 -41.5q-106 0 -196 54t-144 142zM317 659q55 41 56 89 q0 18 -7.5 40.5t-21.5 55.5h518q0 -45 -8 -79t-47 -106h-490zM387 688h389q10 14 19.5 27.5t17.5 31t11 29.5t3 35h-430q6 -10 10.5 -25.5t4.5 -44.5q0 -25 -25 -53z" />
<glyph unicode="X" horiz-adv-x="925" d="M51 844q0 102 48 190t132 142l187 -218v-204h-357q-6 31 -8 44t-2 46zM84 856q0 -37 8 -76h299v160l-164 193q-47 -33 -73.5 -69t-44.5 -87q-25 -66 -25 -121zM111 637h233l-84 -137q-94 49 -149 137zM272 1196q86 43 174 43q131 0 241 -69.5t155 -186.5h-385zM317 473 l95 164h391q-59 -88 -152.5 -138t-204.5 -50q-39 0 -69.5 7t-59.5 17zM362 494q49 -12 91 -13q45 0 111.5 18.5t105.5 43t84 69.5h-324z" />
<glyph unicode="Y" horiz-adv-x="978" d="M80 821h196l164 -227h379q-57 -78 -147 -123t-197 -45q-164 0 -279.5 115.5t-115.5 279.5zM82 877q10 82 54 152.5t110 113.5l303 -230v101l-223 172q61 31 149 31q129 0 234.5 -66t154.5 -178h-149v-53h170q10 -40 10 -99q0 -43 -12.5 -88t-32.5 -90h-377l-166 234h-225 zM117 784q16 -92 66 -168.5t133 -117.5t165 -41q72 0 141.5 27.5t135.5 80.5h-344l-154 219h-143z" />
<glyph unicode="Z" horiz-adv-x="970" d="M84 727h152v-78h102v78h278v-268q-66 -23 -149 -23q-137 0 -242.5 81t-140.5 210zM88 952q39 125 148 201v-201h-148zM147 987h58v82q-25 -16 -38 -36.5t-20 -45.5zM338 952v252q63 23 129 23q84 0 149 -23v-252h-278zM381 999h197v172q-29 16 -49.5 20.5t-57.5 4.5 q-43 0 -90 -20v-177zM719 952v201q102 -74 147 -201h-147z" />
<glyph unicode="_" horiz-adv-x="106" d="M-664 801q0 51 27 51h758q16 0 21 -18.5t5 -32.5q1 -51 -26 -51h-758q-10 0 -18.5 15t-8.5 36z" />
<glyph unicode="`" horiz-adv-x="2187" d="M156 403v11h315v-11h-315zM199 1530q0 8 8 8t8 -8v-496q25 0 72 -12t67 -12q37 0 64 24q31 23 48 52.5t17 62.5q0 16 -2 25q-12 43 -92 65q-27 6 -80 14q-6 0 -6 7.5t6 7.5q8 0 18.5 -1t26.5 -1q55 0 86 8q49 14 65.5 45t16.5 61q0 25 -6 44.5t-20 45.5q-27 41 -111 51.5 t-98 14.5q-8 4 -4 10l8 4q27 -8 107.5 -15t109.5 -58q33 -49 33 -97q-1 -30 -19 -65q-16 -31 -49 -43t-84 -19q41 -10 69.5 -28.5t35 -38t6.5 -41.5q0 -33 -17.5 -64.5t-50.5 -60.5q-33 -25 -72 -25q-20 0 -55 9q-78 18 -104 18zM319 74v311h11v-311h-11zM471 137 q0 27 16 49q29 37 70 37q27 0 49 -16q37 -29 37 -70q0 -26 -16 -49q-29 -37 -70 -37q-27 0 -49 17q-37 29 -37 69zM481 137q0 -39 31 -61q20 -14 45 -15q38 0 61 31q14 20 15 45q0 39 -31 62q-20 14 -45 14q-39 0 -61 -31q-14 -20 -15 -45zM680 1120q0 12 4 37q12 55 58 95 t104 40q20 0 43 -6q47 -14 71.5 -54t24.5 -93q0 -27 -6 -52q-10 -57 -50 -93t-91 -36q-14 0 -21 3q-61 0 -99 48t-38 111zM694 1128q0 -61 34 -107t89 -52q119 0 150 123q6 23 6 47q0 47 -23.5 84t-70.5 53q-16 6 -33 6q-49 0 -93 -37t-57 -88q-2 -8 -2 -16v-13zM729 430 q0 23 16.5 39t38.5 16q23 0 40.5 -15t17.5 -40t-16.5 -41t-41.5 -16q-23 0 -39 16.5t-16 40.5zM729 492v131h10v-131h-10zM739 430q0 -47 45 -47q20 0 33.5 13.5t13.5 33.5t-12 32.5t-35 12.5q-45 0 -45 -45zM750 53v148h10v-148h-10zM783 173q-3 3 1 7q23 18 31 27 q16 14 37 14q29 2 36 -15.5t7 -60.5v-50.5t6 -43.5q-10 -4 -13 5.5t-3 37.5q0 12 2 36t2 32q0 51 -37 51q-16 0 -32.5 -14.5t-31.5 -26.5q-2 -2 -5 1zM914.5 169q-3.5 3 0.5 7q23 18 31 27q16 14 37 14q29 2 36 -15.5t7 -60.5v-50.5t6 -43.5q2 -4 -2 -6t-6 2q-2 10 -3 24.5 t-1 22.5q2 43 2 64q0 27 -7 41t-32 14q-16 0 -32.5 -14.5t-30.5 -26.5q-2 -2 -5.5 1zM918 270l192 222q2 2 7 -0.5t1 -8.5l-192 -221q-2 -2 -7.5 0t-0.5 8zM938 481l8 4l62 -106l-9 -4zM1102 37v168h10v-168h-10zM1127.5 169q-3.5 3 0.5 7q23 18 31 27q16 14 37 14 q29 2 36 -15.5t7 -60.5v-50.5t6 -43.5q2 -4 -2 -6t-6 2q-2 10 -3 24.5t-1 22.5q2 43 2 64q0 27 -7 41t-32 14q-16 0 -32.5 -14.5t-30.5 -26.5q-2 -2 -5.5 1zM1157 981v324q0 8 8.5 8t8.5 -8v-324q0 -8 -8.5 -8t-8.5 8zM1229 1240q-4 7 2 9l82 54q29 14 55 12 q23 0 54.5 -25.5t56.5 -29.5q8 -4 4 -11.5t-13 -5.5q-18 4 -46.5 30.5t-55.5 26.5q-33 0 -66.5 -22.5t-64.5 -42.5q-4 -2 -8 5zM1258.5 169q-3.5 3 1.5 7q23 18 30 27q16 14 37 14q29 2 36 -15.5t7 -60.5v-50.5t6 -43.5q2 -4 -2 -6t-6 2q-2 10 -3 24.5t-1 22.5q2 43 2 64 q0 27 -7 41t-32 14q-16 0 -32.5 -14.5t-30.5 -26.5q-2 -2 -5.5 1zM1430 -82l245 291q2 2 7 0t1 -8l-245 -291q-2 -2 -7.5 0t-0.5 8zM1454 207l8 4l82 -148l-8 -4zM1626 1112q0 16 4 51t51.5 80t108.5 45q14 0 52 -5t83 -52t45 -109q0 -14 -2 -22q-8 -66 -56 -111t-112 -45 q-14 0 -22 2q-63 8 -107.5 54.5t-44.5 111.5zM1640 1137q0 -70 41 -123t105 -53q59 0 109.5 40t58.5 99q0 63 -40 113.5t-102 58.5q-63 0 -113 -38t-59 -97zM1688 678q-4 2 4 16q63 -51 94 -72.5t61 -23.5q51 0 92 28.5t84 59.5v467q0 8 9.5 6t9.5 -6l-2 -471 q-78 -59 -116 -79.5t-77 -16.5q-45 0 -84 30.5t-75 61.5z" />
<glyph unicode="a" horiz-adv-x="991" d="M109 983q43 104 145 174q111 76 240 76v-395h71v387q20 -4 45 -13q31 -14 43 -18v-473h56v446q82 -57 134 -145t52 -186q0 -143 -113.5 -255t-265.5 -137v295h-80v-295l-86 19v520h-241z" />
<glyph unicode="b" horiz-adv-x="1056" d="M125 731h199v260h-187q49 115 133 183q97 79 229 79h3v-387h411q0 -66 -22 -129h-395v-53h370q-53 -102 -151.5 -164.5t-214.5 -62.5q-133 0 -237.5 71.5t-137.5 202.5zM549 1165v86q76 0 128 -18.5t107 -67.5q68 -57 96.5 -113.5t28.5 -140.5h-84q-8 66 -29.5 108 t-70.5 83q-74 63 -176 63z" />
<glyph unicode="c" horiz-adv-x="1024" d="M94 825v31q0 135 74 236.5t199 138.5v-406h-273zM111 745h256v-266q-199 74 -256 266zM457 463v782l32 4q25 0 31 -2v-205h342q47 -84 47 -186q0 -133 -84 -239.5t-213 -143.5v252h-92v-262q-12 -2 -33 -2h-21t-9 2zM580 1169v72q162 -33 254 -156h-93q-37 35 -73 50 q-39 20 -88 34z" />
<glyph unicode="d" horiz-adv-x="966" d="M80 821q0 143 84 244v-182h63v151h164v76h-186q55 51 123.5 79t146.5 28v-273h399q21 -55 21 -123q0 -129 -80 -233h-203v221h-88v-277h238q-59 -51 -132 -78.5t-155 -27.5v86h-233q-31 27 -54 47q-29 29 -45 53h256v62h-288q-31 82 -31 147z" />
<glyph unicode="e" horiz-adv-x="937" d="M53 842q0 109 56.5 201t148.5 143q-4 -6 -6 -8q-16 -25 -16 -39q0 -82 53 -133q41 -41 125 -72v-272h-318q-43 86 -43 180zM391 981l17 43q20 -14 47 -14t47 14l12 -43q-27 -18 -61 -18q-35 0 -62 18zM393 1229q37 10 66 10q38 0 71 -10l-10 -49q-31 8 -57 8 q-25 0 -55 -8zM492 449v483q72 18 117.5 74.5t45.5 132.5q0 16 -16 49q-2 4 -10 16q106 -47 172.5 -145t66.5 -217q0 -47 -12 -90t-35 -90h-248v-68h199q-53 -63 -126 -104t-154 -41z" />
<glyph unicode="f" d="M96 780l316 135q4 -16 11 -27.5t19 -27.5l-268 -268q-66 78 -78 188zM96 856q12 121 86 211h271q-37 -41 -43 -94zM229 1120q53 43 122 71t138 28q162 0 282 -101.5t134 -259.5h-196q31 49 30 107q0 66 -52 110.5t-122 44.5h-336zM328 647l145 180l12 -6l-106 -203z M395 444l133 351q23 -6 25 -7q12 2 31 3h321q-14 -158 -134 -260.5t-282 -102.5q-18 0 -44.5 5t-49.5 11z" />
<glyph unicode="g" horiz-adv-x="962" d="M66 788h79q10 -31 44 -60.5t77 -35.5q23 -6 39 -6q18 0 27 2l53 -174l217 -70q-33 -12 -73 -16t-68 -4q-162 0 -278.5 110.5t-116.5 253.5zM66 844q6 68 22 110l68 -26q-6 -12 -11.5 -41t-7.5 -43h-71zM113 1012q8 16 23.5 36.5t29.5 36.5l47 -98q-25 -6 -39 -31z M205 1118q51 45 106.5 69.5t116.5 24.5v-278q-20 35 -44 51t-73 16h-30q-18 0 -29 -4zM410 733l30 55h439q-10 -111 -74 -196.5t-166 -130.5l-186 86zM496 844v370q152 0 269.5 -109t117.5 -261h-387z" />
<glyph unicode="h" horiz-adv-x="985" d="M78 801h33q0 -68 44 -119t111 -61v-64q-92 0 -140 64.5t-48 179.5zM252 801q0 20 13.5 30.5t23.5 8.5q16 4 27.5 -8.5t11.5 -28.5q2 -12 -9.5 -23.5t-27.5 -15.5q-35 4 -39 37zM281 979v164q94 53 192 53q203 0 324 -137h-262v-131h337q21 -53 21 -127q0 -123 -70 -221 v213h-250v-365q-39 -22 -95 -22h-5q-78 0 -154 32v189q63 10 106.5 59t43.5 115q0 76 -53.5 127t-134.5 51zM598 1024h152l102 -66h-154zM698 676l47 90l48 -88l-48 -100z" />
<glyph unicode="i" horiz-adv-x="1024" d="M98 817q0 55 19.5 108.5t54.5 100.5h266l123 -289h348q-18 -109 -86.5 -187.5t-175.5 -117.5v141h-100v-163l-51 -4v403h-185v-352q-84 43 -137 113.5t-70 166.5h160v80h-166zM221 1085q53 51 125 81t150 30q94 0 163 -31v-237h238q18 -54 18 -113h-313l-110 270h-271z M356 436v158h82v-180q-20 4 -37.5 8t-44.5 14zM356 635v123h82v-123h-82z" />
<glyph unicode="j" d="M86 829q0 147 90 254v-204h176v321q29 10 45 14q39 10 84 11q86 0 152 -23v-323h166v213q102 -113 102 -263q0 -70 -27.5 -139t-76.5 -123v209h-621v-194q-41 51 -65.5 115.5t-24.5 131.5zM352 408v102h281v-102h-281zM352 555v170h281v-170h-281z" />
<glyph unicode="k" horiz-adv-x="933" d="M66 840q0 176 112.5 282.5t282.5 106.5l-2 -268q-45 0 -78 -34t-33 -79l-280 -53q-2 16 -2 45zM82 725l301 98l-2 21q0 35 26.5 61.5t63.5 26.5t62.5 -27.5t25.5 -64.5t-26.5 -61.5t-65.5 -24.5l39 -312q-37 -6 -66 -6q-49 0 -110 25l112 297q-31 8 -49 41l-266 -176 q-29 43 -45 102zM160 578l205 170l30 -27l-121 -236q-76 35 -114 93zM508 725h14q37 8 62 53q18 35 18 66q0 14 -2 22t-6 13l272 57q18 -84 19 -150q0 -143 -82 -227q-74 -76 -225 -108z" />
<glyph unicode="l" horiz-adv-x="995" d="M96 801q0 160 108.5 276.5t264.5 116.5v-467h47v469q63 0 113.5 -10t97.5 -47v-54q-49 0 -76.5 -5t-32.5 -48v-231h293q0 -80 -12 -111q-20 -35 -31 -55h-250v-213q-27 -6 -53 -12.5t-49 -6.5v232h-47v-227q-158 14 -265.5 125.5t-107.5 267.5zM666 842v73h215l24 -73 h-239z" />
<glyph unicode="m" d="M74 825q0 166 114.5 281t280.5 115h27v-789l-27 -2q-162 0 -278.5 117t-116.5 278zM340 690h80v223h-80v-223zM555 446v220l336 153q0 -131 -96.5 -236.5t-239.5 -136.5zM555 705v75l309 164q4 -6 10.5 -25.5t10.5 -56.5zM555 825v64l266 151q19 -22 29 -51zM555 936v72 l193 116l47 -47zM555 1030v187q96 -19 178 -80z" />
<glyph unicode="n" horiz-adv-x="950" d="M72 840q0 115 56 208t155 142v-219h71v248q18 8 52 12t61 4q12 2 35 2q29 0 65 -10v-256h82v231q106 -45 172 -143t66 -219q0 -29 -2 -46.5t-13 -29.5h-303v115h-286v-385q-96 53 -153.5 144t-57.5 202zM324 479v103h194v-129q-14 -2 -36.5 -2h-30.5q-43 6 -93 18 q-14 2 -34 10zM324 653v178h200v-178h-200z" />
<glyph unicode="o" horiz-adv-x="950" d="M61 786h388v-370q-152 0 -270 109.5t-118 260.5zM66 842q10 111 73.5 196.5t165.5 130.5l187 -86l43 -186l-31 -55h-438zM342 1186q33 12 73 16t68 4q162 0 279 -110.5t118 -253.5h-81q-10 31 -41 57q-37 33 -80 39q-23 6 -39 6q-18 0 -27 -2l-53 174zM516 418v278 q20 -35 44 -51t73 -16q20 -2 31 -2q16 0 28 6l47 -121q-51 -45 -106 -69.5t-117 -24.5zM731 643q25 6 39 31l61 -56q-8 -16 -22 -36.5t-31 -36.5zM788 702q6 12 11.5 41t7.5 43h73q-6 -68 -24 -110z" />
<glyph unicode="p" horiz-adv-x="954" d="M106 1020q47 100 144.5 164.5t214.5 64.5q63 0 117.5 -12t105.5 -43q-37 -25 -55 -41q-59 -51 -82 -91t-29 -91t-12 -99h-141q-82 92 -207 134q-20 6 -56 14zM399 834h486q0 -45 -15.5 -88.5t-42.5 -83.5h-286v-35h43v-146q-41 -12 -63.5 -17t-55.5 -5q2 16 4 47t2 47 q0 76 -14.5 146.5t-57.5 134.5zM571 872l281 140q33 -70 33 -140h-314zM616 1001l117 162q63 -51 98 -110zM625 496v131h176q-31 -41 -78 -76t-98 -55z" />
<glyph unicode="q" horiz-adv-x="954" d="M78 778h262v410q66 26 128 26h5q156 0 264 -84v-303h62v246q94 -107 94 -254q0 -102 -55 -196h-263v-187l-63 -10v401h129v134h-211v-533q-141 18 -238.5 115.5t-113.5 234.5zM78 819q0 113 59.5 206t159.5 144v-350h-219z" />
<glyph unicode="r" horiz-adv-x="925" d="M53 825q0 123 76 226.5t193 150.5l47 -127h-181v-53h185l41 -141h-226v-56h680q0 -111 -54 -198.5t-148 -141.5v215h-426v-206q-86 53 -136.5 140t-50.5 191zM338 528v121h237v-121h-237zM367 1214q14 4 39.5 4.5t42.5 2.5q27 0 54 -2.5t54 -8.5l-111 -112zM473 881v176 l129 141q106 -37 177 -121.5t87 -195.5h-393z" />
<glyph unicode="s" horiz-adv-x="954" d="M70 831q0 53 8 87h217v137h-158q53 80 133 123h140v-291h471l4 -56h-70l-197 -253h89l129 170h38q-29 -127 -127 -211t-231 -97v174h-51v-178q-123 0 -223.5 71t-145.5 181h342v74h-362zM465 948v279q139 0 248.5 -77t150.5 -202h-399z" />
<glyph unicode="t" horiz-adv-x="987" d="M80 793v24q0 166 114.5 280.5t280.5 114.5q37 0 65.5 -2t57.5 -10v-301h289q2 -20 5 -37.5t3 -44.5q0 -29 -8 -68.5t-19 -70.5h-389q-14 78 -86 96q-16 4 -60 9t-81 10h-172zM86 745h166q-2 -8 -2 -26v-16.5t2 -12.5q0 -55 18.5 -92t65.5 -49q20 -4 29 -4q45 0 77 33 l166 -138q-61 -18 -133 -18q-147 0 -255.5 91t-133.5 232zM463 602l14 31h371q-33 -61 -84 -108.5t-119 -73.5z" />
<glyph unicode="u" d="M78 817q0 59 14 109h221v84h-184q51 90 143.5 146t200.5 56v-479q-86 -72 -127 -106q-125 -103 -133 -103q-37 0 -99 131q-36 76 -36 162zM260 487l236 189l176 -207q-90 -47 -199 -47q-55 0 -107.5 17.5t-105.5 47.5zM524 733v193h353q16 -50 16 -109q0 -100 -45 -181 t-125 -138z" />
<glyph unicode="v" d="M96 831q0 68 15 117h344v66h-316q49 96 144.5 154.5t208.5 58.5q37 0 63.5 -2t54.5 -11v-270h285q16 -56 16 -113q0 -61 -19.5 -118.5t-55.5 -108.5h-324v-53h274q-119 -115 -294 -115q-164 0 -280 116t-116 279zM664 997v199q142 -58 210 -199h-210z" />
<glyph unicode="w" horiz-adv-x="950" d="M92 1022q51 100 143.5 158.5t206.5 58.5q147 0 262 -86t148 -223h-238l-108 217l-119 -53l109 -205h-174q-49 80 -144 115q-31 10 -86 18zM102 645q18 -8 31 -12q76 -27 135 -27h516q-59 -74 -149 -115.5t-193 -41.5q-106 0 -196 54t-144 142zM317 659q55 41 56 89 q0 18 -7.5 40.5t-21.5 55.5h518q0 -45 -8 -79t-47 -106h-490z" />
<glyph unicode="x" horiz-adv-x="925" d="M51 844q0 102 48 190t132 142l187 -218v-204h-357q-6 31 -8 44t-2 46zM111 637h233l-84 -137q-94 49 -149 137zM272 1196q86 43 174 43q131 0 241 -69.5t155 -186.5h-385zM317 473l95 164h391q-59 -88 -152.5 -138t-204.5 -50q-39 0 -69.5 7t-59.5 17z" />
<glyph unicode="y" horiz-adv-x="978" d="M80 821h196l164 -227h379q-57 -78 -147 -123t-197 -45q-164 0 -279.5 115.5t-115.5 279.5zM82 877q10 82 54 152.5t110 113.5l303 -230v101l-223 172q61 31 149 31q129 0 234.5 -66t154.5 -178h-149v-53h170q10 -40 10 -99q0 -43 -12.5 -88t-32.5 -90h-377l-166 234h-225 z" />
<glyph unicode="z" horiz-adv-x="970" d="M84 727h152v-78h102v78h278v-268q-66 -23 -149 -23q-137 0 -242.5 81t-140.5 210zM88 952q39 125 148 201v-201h-148zM338 952v252q63 23 129 23q84 0 149 -23v-252h-278zM719 952v201q102 -74 147 -201h-147z" />
<glyph unicode="&#xad;" horiz-adv-x="1497" d="M-43 801q0 51 51 51h1516q53 0 53 -51t-53 -51h-1516q-27 0 -39 14t-12 37z" />
<glyph unicode="&#x2000;" horiz-adv-x="813" />
<glyph unicode="&#x2001;" horiz-adv-x="1626" />
<glyph unicode="&#x2002;" horiz-adv-x="813" />
<glyph unicode="&#x2003;" horiz-adv-x="1626" />
<glyph unicode="&#x2004;" horiz-adv-x="542" />
<glyph unicode="&#x2005;" horiz-adv-x="406" />
<glyph unicode="&#x2006;" horiz-adv-x="271" />
<glyph unicode="&#x2007;" horiz-adv-x="271" />
<glyph unicode="&#x2008;" horiz-adv-x="203" />
<glyph unicode="&#x2009;" horiz-adv-x="325" />
<glyph unicode="&#x200a;" horiz-adv-x="90" />
<glyph unicode="&#x2010;" horiz-adv-x="1497" d="M-43 801q0 51 51 51h1516q53 0 53 -51t-53 -51h-1516q-27 0 -39 14t-12 37z" />
<glyph unicode="&#x2011;" horiz-adv-x="1497" d="M-43 801q0 51 51 51h1516q53 0 53 -51t-53 -51h-1516q-27 0 -39 14t-12 37z" />
<glyph unicode="&#x2012;" horiz-adv-x="1497" d="M-43 801q0 51 51 51h1516q53 0 53 -51t-53 -51h-1516q-27 0 -39 14t-12 37z" />
<glyph unicode="&#x2013;" horiz-adv-x="901" d="M-43 801q0 51 32 51h958q34 0 34 -51t-34 -51h-958q-17 0 -24.5 14t-7.5 37z" />
<glyph unicode="&#x2014;" horiz-adv-x="1925" d="M-43 801q0 51 64 51h1917q67 0 67 -51t-67 -51h-1917q-34 0 -49 14t-15 37z" />
<glyph unicode="&#x202f;" horiz-adv-x="325" />
<glyph unicode="&#x205f;" horiz-adv-x="406" />
<glyph unicode="&#xe000;" horiz-adv-x="1239" d="M0 0v1239h1239v-1239h-1239z" />
</font>
</defs>
</svg>
